<?xml version="1.0" standalone="no"?>
<!DOCTYPE svg PUBLIC "-//W3C//DTD SVG 20010904//EN"
 "http://www.w3.org/TR/2001/REC-SVG-20010904/DTD/svg10.dtd">
<svg version="1.0" xmlns="http://www.w3.org/2000/svg"
 width="960.000000pt" height="960.000000pt" viewBox="0 0 960.000000 960.000000"
 preserveAspectRatio="xMidYMid meet">
<metadata>
Created by potrace 1.14, written by Peter Selinger 2001-2017
</metadata>
<g transform="translate(0.000000,960.000000) scale(0.100000,-0.100000)"
fill="#000000" stroke="none">
<path d="M3778 8815 c-2 -2 -39 -6 -83 -10 -44 -3 -93 -7 -110 -9 -62 -7 -141
-17 -155 -20 -8 -1 -37 -6 -65 -10 -56 -9 -95 -16 -110 -20 -5 -1 -28 -6 -50
-10 -41 -8 -310 -73 -333 -81 -7 -3 -14 -5 -17 -5 -3 -1 -34 -12 -70 -25 -36
-13 -65 -21 -65 -19 0 3 -10 -1 -22 -8 -13 -6 -27 -13 -33 -14 -18 -4 -119
-42 -160 -60 -22 -10 -42 -18 -45 -19 -3 0 -34 -14 -70 -30 -36 -17 -67 -28
-69 -27 -2 2 -7 0 -10 -5 -3 -4 -51 -30 -106 -57 -55 -27 -103 -54 -106 -59
-3 -5 -10 -9 -15 -8 -24 1 -361 -215 -489 -313 -207 -159 -477 -411 -605 -565
-25 -30 -52 -62 -61 -70 -57 -58 -296 -395 -348 -491 -13 -25 -33 -56 -43 -69
-10 -13 -18 -29 -18 -37 0 -7 -4 -14 -8 -16 -22 -9 -206 -402 -259 -553 -13
-38 -28 -79 -33 -90 -19 -44 -99 -318 -105 -360 -1 -11 -5 -27 -8 -35 -7 -20
-45 -206 -51 -250 -3 -19 -9 -66 -15 -105 -12 -80 -18 -128 -28 -240 -10 -99
-10 -555 0 -650 3 -38 8 -90 11 -115 8 -82 18 -165 23 -185 3 -11 6 -29 7 -40
1 -11 6 -40 11 -65 4 -25 9 -54 11 -65 1 -11 3 -20 4 -20 1 0 4 -11 6 -25 6
-31 64 -270 70 -290 3 -8 5 -17 6 -20 0 -3 7 -21 15 -40 8 -19 17 -48 20 -65
3 -16 9 -37 14 -46 5 -9 16 -39 25 -65 9 -27 21 -60 27 -74 5 -14 11 -29 12
-35 10 -41 193 -424 251 -525 15 -25 53 -87 85 -139 33 -51 59 -97 59 -101 0
-5 3 -10 7 -12 10 -4 63 -74 63 -82 0 -3 7 -14 14 -23 8 -10 51 -64 94 -120
44 -56 86 -109 93 -116 8 -8 34 -39 59 -68 47 -57 305 -316 355 -359 75 -63
160 -135 165 -140 3 -3 12 -9 21 -15 9 -5 53 -38 98 -73 45 -34 84 -62 87 -62
3 0 29 -18 59 -40 30 -22 59 -40 65 -40 5 0 10 -4 10 -10 0 -5 4 -10 8 -10 5
0 58 -30 118 -66 130 -78 391 -207 524 -259 52 -20 104 -41 115 -46 30 -14
291 -97 323 -103 15 -3 59 -14 97 -25 72 -20 109 -29 160 -37 17 -2 48 -9 70
-14 34 -8 67 -13 155 -26 8 -1 40 -5 70 -9 30 -4 66 -8 80 -11 123 -20 628
-26 805 -10 149 13 215 21 275 31 14 3 43 7 65 11 22 3 47 7 55 9 8 3 33 7 54
11 22 3 98 21 170 40 72 19 138 36 146 38 8 2 41 13 72 24 31 11 59 17 62 14
3 -3 6 0 6 6 0 7 6 12 14 12 8 0 27 5 43 12 15 6 30 12 33 13 90 30 451 210
470 235 3 3 29 20 57 38 52 31 217 151 260 188 12 11 41 35 64 54 74 61 311
301 390 397 107 127 211 267 305 408 43 66 82 122 85 125 3 3 19 28 34 55 16
28 33 52 37 53 4 2 8 8 8 13 0 6 23 49 51 97 29 48 67 115 85 149 19 34 47 85
64 112 16 28 27 51 24 51 -3 0 3 12 14 28 16 23 275 537 277 552 1 5 24 54
118 250 30 63 64 138 77 165 12 28 46 100 75 160 29 61 68 144 88 185 78 165
145 300 155 312 6 7 10 15 10 18 -1 7 77 173 218 465 32 66 58 122 59 125 5
23 18 50 24 50 4 0 8 6 8 13 0 19 300 632 383 782 15 27 47 86 70 130 62 115
202 353 258 437 26 40 49 78 52 83 7 14 83 129 90 135 3 3 20 28 39 55 53 77
196 265 235 310 l36 40 -1 645 0 645 -23 -50 c-13 -27 -31 -66 -39 -85 -113
-273 -242 -576 -247 -580 -3 -3 -6 -12 -8 -20 -2 -8 -9 -29 -17 -45 -13 -28
-36 -84 -40 -95 -1 -3 -11 -27 -23 -53 -12 -27 -22 -51 -22 -53 0 -3 -9 -24
-19 -47 -20 -45 -49 -113 -52 -125 -2 -4 -16 -36 -32 -72 -27 -59 -48 -108
-52 -120 -7 -21 -154 -367 -181 -427 -13 -28 -24 -54 -24 -57 0 -4 -10 -28
-21 -54 -12 -26 -28 -63 -36 -82 -9 -19 -21 -48 -28 -65 -26 -58 -73 -171
-108 -255 -20 -47 -43 -103 -53 -125 -10 -22 -18 -42 -19 -45 -3 -10 -25 -60
-45 -105 -19 -41 -41 -93 -45 -105 -4 -11 -267 -632 -290 -685 -55 -125 -115
-271 -115 -282 0 -7 -4 -13 -10 -13 -5 0 -10 -6 -10 -13 0 -9 -137 -340 -179
-432 -5 -11 -33 -76 -62 -144 -29 -69 -75 -170 -103 -225 -61 -120 -101 -208
-98 -218 1 -5 -3 -8 -8 -8 -6 0 -10 -4 -10 -10 0 -5 -40 -92 -89 -192 -49
-101 -89 -187 -89 -192 0 -5 -4 -12 -10 -15 -5 -3 -29 -46 -54 -96 -25 -49
-60 -114 -77 -143 -17 -29 -31 -55 -31 -58 0 -3 -25 -49 -56 -102 -31 -53 -65
-112 -75 -130 -35 -60 -106 -174 -160 -255 -22 -32 -39 -62 -39 -67 0 -6 -4
-10 -10 -10 -5 0 -10 -5 -10 -10 0 -6 -5 -16 -10 -23 -6 -7 -36 -48 -68 -92
-31 -44 -60 -82 -64 -83 -4 -2 -8 -8 -8 -13 0 -9 -93 -127 -184 -234 -133
-156 -310 -331 -437 -432 -34 -26 -75 -60 -92 -75 -17 -16 -35 -28 -40 -28 -4
0 -20 -11 -35 -25 -15 -14 -30 -25 -33 -25 -4 0 -35 -19 -71 -42 -87 -58 -101
-65 -193 -112 -277 -141 -516 -214 -825 -251 -187 -23 -554 -18 -690 10 -14 3
-45 7 -69 10 -23 3 -46 7 -50 9 -3 2 -24 7 -46 10 -22 4 -65 13 -95 22 -30 8
-62 16 -70 18 -60 15 -219 74 -297 111 -53 25 -97 45 -98 45 -14 0 -238 142
-263 167 -7 7 -16 13 -20 13 -4 0 -21 13 -39 28 -17 15 -48 41 -70 58 -88 73
-238 231 -330 350 -210 270 -410 682 -523 1074 -7 25 -17 61 -23 80 -5 19 -14
46 -18 60 -5 14 -10 36 -13 50 -2 14 -10 48 -16 75 -6 28 -13 59 -16 70 -24
118 -35 176 -40 209 -3 21 -8 48 -10 60 -2 11 -7 37 -9 56 -13 86 -18 116 -20
132 -2 9 -6 45 -10 80 -3 35 -8 79 -10 98 -2 19 -7 64 -10 100 -3 36 -7 90
-10 120 -11 126 -23 670 -15 693 0 1 3 76 5 167 3 91 8 194 10 230 3 36 7 96
10 134 2 39 7 93 11 120 3 28 8 69 9 91 9 104 16 163 21 186 3 13 5 36 5 52
-1 15 4 27 9 27 6 0 9 4 6 9 -5 8 6 116 19 183 11 55 27 145 30 168 2 14 4 25
5 25 2 0 5 14 13 60 3 17 8 41 11 55 3 14 8 34 10 45 2 11 9 40 15 65 7 25 14
55 17 68 7 34 50 188 74 267 12 39 23 75 24 80 13 45 110 304 137 363 15 34
25 62 21 62 -4 0 -2 4 3 8 6 4 26 41 45 82 19 41 39 78 43 81 5 3 8 9 8 13 -1
6 22 53 46 91 7 11 15 27 19 35 15 32 175 267 204 298 16 18 30 35 30 38 0 11
177 190 250 251 124 105 339 229 465 267 33 10 65 21 70 25 6 3 15 6 20 7 6 2
55 12 110 24 55 11 132 22 170 25 39 2 70 4 70 5 0 1 21 2 48 3 26 1 47 0 47
-3 0 -3 20 -4 46 -4 49 2 183 -21 225 -37 14 -5 35 -11 47 -12 12 -1 22 -5 22
-9 0 -4 6 -8 14 -8 7 0 31 -7 52 -16 22 -9 39 -15 39 -14 0 1 24 -12 53 -29
29 -17 55 -31 58 -31 6 0 156 -100 164 -109 3 -3 23 -19 45 -36 73 -55 215
-201 308 -320 104 -132 238 -363 298 -515 41 -105 78 -210 73 -210 -3 0 0 -8
5 -18 6 -11 12 -30 15 -43 2 -13 9 -43 14 -66 5 -24 7 -43 3 -43 -3 0 0 -4 8
-9 8 -5 21 -5 30 0 20 11 329 139 336 139 2 0 28 11 57 24 29 13 94 40 143 61
50 21 104 44 120 51 17 7 55 22 85 34 30 12 66 27 80 33 14 6 27 11 30 12 3 0
21 8 40 16 19 9 47 21 63 27 32 14 33 21 7 50 -11 12 -20 25 -20 29 0 4 -14
22 -30 40 -17 18 -30 34 -30 37 0 4 -8 14 -17 24 -10 11 -45 50 -78 87 -115
131 -215 225 -382 358 -40 31 -75 57 -78 57 -3 0 -14 8 -25 18 -56 51 -421
255 -555 309 -17 7 -48 20 -70 29 -67 28 -289 103 -341 115 -64 14 -66 15 -84
22 -38 14 -277 58 -395 72 -27 4 -63 9 -80 11 -35 6 -562 14 -567 9z"/>
</g>
</svg>
