<?xml version="1.0" standalone="no"?>
<!DOCTYPE svg PUBLIC "-//W3C//DTD SVG 20010904//EN"
 "http://www.w3.org/TR/2001/REC-SVG-20010904/DTD/svg10.dtd">
<svg version="1.0" xmlns="http://www.w3.org/2000/svg"
 width="700.000000pt" height="700.000000pt" viewBox="0 0 700.000000 700.000000"
 preserveAspectRatio="xMidYMid meet">
<metadata>
Created by potrace 1.14, written by Peter Selinger 2001-2017
</metadata>
<g transform="translate(0.000000,700.000000) scale(0.100000,-0.100000)"
fill="#000000" stroke="none">
<path d="M3389 6996 c-2 -2 -47 -6 -99 -10 -109 -7 -125 -10 -315 -41 -159
-27 -140 -23 -300 -64 -373 -95 -738 -255 -1080 -475 -44 -28 -87 -56 -95 -63
-8 -6 -55 -42 -105 -79 -489 -364 -896 -883 -1124 -1434 -24 -58 -49 -118 -56
-135 -44 -106 -127 -397 -150 -530 -50 -275 -60 -387 -60 -670 0 -258 12 -403
50 -605 3 -14 7 -41 10 -60 3 -19 8 -43 11 -52 3 -9 6 -25 8 -35 27 -135 132
-458 193 -592 100 -221 175 -359 288 -531 444 -679 1120 -1189 1910 -1444 127
-41 298 -85 390 -101 17 -3 37 -8 45 -10 8 -2 35 -7 60 -10 25 -3 52 -7 60 -9
15 -3 89 -14 145 -21 104 -15 234 -20 485 -20 255 1 586 11 600 20 3 2 47 6
99 9 52 4 97 8 100 10 3 2 33 6 66 10 33 3 71 8 85 10 14 3 43 7 65 11 67 10
159 25 185 30 14 3 37 7 52 10 16 3 58 12 95 21 38 9 75 17 84 19 51 10 252
70 350 104 297 102 549 229 824 415 104 70 316 234 402 310 15 13 39 34 52 45
51 44 179 159 228 205 40 37 50 52 44 65 -5 9 -10 21 -11 26 -2 6 -4 15 -6 20
-2 6 -10 27 -17 48 -7 21 -15 39 -18 40 -5 2 -65 -46 -131 -105 -18 -16 -78
-64 -133 -107 -410 -322 -854 -557 -1320 -701 -98 -31 -351 -96 -410 -106 -16
-2 -55 -9 -85 -14 -96 -16 -114 -19 -185 -29 -38 -5 -101 -13 -140 -16 -38 -3
-86 -8 -105 -11 -19 -3 -152 -7 -295 -8 -242 -4 -340 2 -510 29 -156 24 -388
98 -538 170 -80 38 -282 157 -297 174 -3 3 -25 22 -50 41 -229 176 -442 444
-599 753 -144 284 -264 655 -322 997 -7 41 -13 77 -14 80 -1 3 -5 30 -9 60 -5
30 -10 63 -11 72 -2 9 -6 49 -10 90 -3 40 -8 84 -10 98 -32 211 -38 885 -11
1165 2 17 6 66 10 110 13 152 27 266 52 425 36 230 109 558 148 668 8 23 15
46 16 50 0 14 63 199 97 287 50 126 209 452 233 475 3 3 26 36 50 75 133 207
342 414 535 532 130 78 288 139 445 170 130 26 399 24 505 -5 346 -92 652
-341 878 -714 99 -163 181 -362 234 -565 l8 -31 180 72 c518 209 711 288 717
294 9 10 -132 181 -237 287 -328 332 -724 558 -1230 700 -101 29 -306 68 -417
81 -29 3 -64 8 -78 11 -28 5 -506 14 -511 9z"/>
</g>
</svg>
